<svg width="125" height="125" viewBox="0 0 125 125" fill="none" xmlns="http://www.w3.org/2000/svg">
<g clip-path="url(#clip0_8_124)">
<path d="M62.5 11.2549C79.1992 11.2549 81.1768 11.3281 87.7441 11.6211C93.8477 11.8896 97.1436 12.915 99.3408 13.7695C102.246 14.8926 104.346 16.2598 106.519 18.4326C108.716 20.6299 110.059 22.7051 111.182 25.6104C112.036 27.8076 113.062 31.1279 113.33 37.207C113.623 43.7988 113.696 45.7764 113.696 62.4512C113.696 79.1504 113.623 81.1279 113.33 87.6953C113.062 93.7988 112.036 97.0947 111.182 99.292C110.059 102.197 108.691 104.297 106.519 106.47C104.321 108.667 102.246 110.01 99.3408 111.133C97.1436 111.987 93.8232 113.013 87.7441 113.281C81.1524 113.574 79.1748 113.647 62.5 113.647C45.8008 113.647 43.8232 113.574 37.2559 113.281C31.1523 113.013 27.8564 111.987 25.6592 111.133C22.7539 110.01 20.6543 108.643 18.4814 106.47C16.2842 104.272 14.9414 102.197 13.8184 99.292C12.9639 97.0947 11.9385 93.7744 11.6699 87.6953C11.377 81.1035 11.3037 79.126 11.3037 62.4512C11.3037 45.752 11.377 43.7744 11.6699 37.207C11.9385 31.1035 12.9639 27.8076 13.8184 25.6104C14.9414 22.7051 16.3086 20.6055 18.4814 18.4326C20.6787 16.2353 22.7539 14.8926 25.6592 13.7695C27.8564 12.915 31.1768 11.8896 37.2559 11.6211C43.8232 11.3281 45.8008 11.2549 62.5 11.2549ZM62.5 0C45.5322 0 43.4082 0.0732422 36.7432 0.366211C30.1025 0.65918 25.5371 1.7334 21.582 3.27148C17.4561 4.88281 13.9648 7.00684 10.498 10.498C7.00684 13.9648 4.88281 17.4561 3.27148 21.5576C1.7334 25.5371 0.65918 30.0781 0.366211 36.7187C0.0732422 43.4082 0 45.5322 0 62.5C0 79.4678 0.0732422 81.5918 0.366211 88.2568C0.65918 94.8975 1.7334 99.4629 3.27148 103.418C4.88281 107.544 7.00684 111.035 10.498 114.502C13.9648 117.969 17.4561 120.117 21.5576 121.704C25.5371 123.242 30.0781 124.316 36.7188 124.609C43.3838 124.902 45.5078 124.976 62.4756 124.976C79.4434 124.976 81.5674 124.902 88.2324 124.609C94.8731 124.316 99.4385 123.242 103.394 121.704C107.495 120.117 110.986 117.969 114.453 114.502C117.92 111.035 120.068 107.544 121.655 103.442C123.193 99.4629 124.268 94.9219 124.561 88.2812C124.854 81.6162 124.927 79.4922 124.927 62.5244C124.927 45.5566 124.854 43.4326 124.561 36.7676C124.268 30.127 123.193 25.5615 121.655 21.6064C120.117 17.4561 117.993 13.9648 114.502 10.498C111.035 7.03125 107.544 4.88281 103.442 3.2959C99.4629 1.75781 94.9219 0.683594 88.2813 0.390625C81.5918 0.0732422 79.4678 0 62.5 0Z" fill="white"/>
<path d="M62.5 30.3955C44.7754 30.3955 30.3955 44.7754 30.3955 62.5C30.3955 80.2246 44.7754 94.6045 62.5 94.6045C80.2246 94.6045 94.6045 80.2246 94.6045 62.5C94.6045 44.7754 80.2246 30.3955 62.5 30.3955ZM62.5 83.3252C51.001 83.3252 41.6748 73.999 41.6748 62.5C41.6748 51.001 51.001 41.6748 62.5 41.6748C73.999 41.6748 83.3252 51.001 83.3252 62.5C83.3252 73.999 73.999 83.3252 62.5 83.3252Z" fill="white"/>
<path d="M103.369 29.126C103.369 33.2764 100 36.6211 95.874 36.6211C91.7236 36.6211 88.3789 33.252 88.3789 29.126C88.3789 24.9756 91.748 21.6309 95.874 21.6309C100 21.6309 103.369 25 103.369 29.126Z" fill="white"/>
</g>
<defs>
<clipPath id="clip0_8_124">
<rect width="125" height="125" fill="white"/>
</clipPath>
</defs>
</svg>
