<svg width="125" height="125" viewBox="0 0 125 125" fill="none" xmlns="http://www.w3.org/2000/svg">
<g clip-path="url(#clip0_8_125)">
<path fill-rule="evenodd" clip-rule="evenodd" d="M125 62.5C125 97.0178 97.0178 125 62.5 125C27.9822 125 0 97.0178 0 62.5C0 27.9822 27.9822 0 62.5 0C97.0178 0 125 27.9822 125 62.5ZM64.7397 46.1403C58.6607 48.6687 46.5111 53.9021 28.2911 61.8402C25.3325 63.0168 23.7826 64.1678 23.6415 65.2932C23.4031 67.1953 25.785 67.9443 29.0285 68.9642C29.4697 69.1029 29.9268 69.2467 30.3955 69.399C33.5867 70.4363 37.8793 71.6499 40.1109 71.6981C42.1351 71.7418 44.3944 70.9073 46.8888 69.1945C63.9123 57.7031 72.6999 51.8948 73.2516 51.7696C73.6408 51.6813 74.1802 51.5702 74.5457 51.895C74.9111 52.2198 74.8752 52.835 74.8365 53C74.6005 54.0059 65.2506 62.6984 60.4121 67.1968C58.9037 68.5991 57.8337 69.5938 57.615 69.821C57.125 70.3299 56.6257 70.8113 56.1457 71.274C53.1811 74.1319 50.9579 76.2751 56.2688 79.7749C58.8211 81.4568 60.8634 82.8476 62.9008 84.2351C65.1259 85.7504 67.3453 87.2618 70.2167 89.1441C70.9483 89.6236 71.647 90.1218 72.3276 90.6069C74.9171 92.453 77.2435 94.1115 80.1176 93.847C81.7877 93.6934 83.5128 92.123 84.3889 87.4393C86.4594 76.3705 90.5293 52.3878 91.4699 42.5051C91.5523 41.6392 91.4486 40.5311 91.3654 40.0447C91.2821 39.5582 91.1082 38.8651 90.4759 38.3521C89.727 37.7445 88.571 37.6163 88.054 37.6254C85.7032 37.6668 82.0966 38.9209 64.7397 46.1403Z" fill="white"/>
</g>
<defs>
<clipPath id="clip0_8_125">
<rect width="125" height="125" fill="white"/>
</clipPath>
</defs>
</svg>
