<svg width="125" height="125" viewBox="0 0 125 125" fill="none" xmlns="http://www.w3.org/2000/svg">
<g clip-path="url(#clip0_8_126)">
<path fill-rule="evenodd" clip-rule="evenodd" d="M8.7868 8.7868C0 17.5736 0 31.7156 0 60V65C0 93.2844 0 107.426 8.7868 116.213C17.5736 125 31.7156 125 60 125H65C93.2844 125 107.426 125 116.213 116.213C125 107.426 125 93.2844 125 65V60C125 31.7156 125 17.5736 116.213 8.7868C107.426 0 93.2844 0 65 0H60C31.7156 0 17.5736 0 8.7868 8.7868ZM21.0941 38.0211C21.7711 70.5211 38.0211 90.0524 66.5107 90.0524H68.1255V71.4586C78.5943 72.5003 86.5104 80.1565 89.6875 90.0524H104.479C100.417 75.2607 89.7393 67.0836 83.0727 63.9586C89.7393 60.1044 99.1143 50.7294 101.354 38.0211H87.9161C84.9995 48.3336 76.3547 57.7086 68.1255 58.594V38.0211H54.6875V74.0628C46.3542 71.9794 35.8336 61.8753 35.3648 38.0211H21.0941Z" fill="white"/>
</g>
<defs>
<clipPath id="clip0_8_126">
<rect width="125" height="125" fill="white"/>
</clipPath>
</defs>
</svg>
